<svg
  version="1.0"
  xmlns="http://www.w3.org/2000/svg"
  width="300.000000pt"
  height="300.000000pt"
  viewBox="0 0 300.000000 300.000000"
  preserveAspectRatio="xMidYMid meet"
>
  <g
    transform="translate(0.000000,300.000000) scale(0.100000,-0.100000)"
    fill="gray"
    stroke="none"
  >
    <path
      class="node"
      id="node1"
      d="M1335 2602 c-47 -29 -59 -50 -59 -100 1 -57 18 -92 78 -159 l46 -51
-32 -4 c-18 -3 -66 -6 -108 -7 -150 -4 -283 -32 -278 -58 8 -40 203 -63 522
-63 122 0 265 5 319 10 103 10 207 35 207 50 0 27 -146 59 -275 60 -44 0 -97
3 -117 6 l-37 7 54 60 c72 79 89 135 61 202 -31 74 -141 86 -196 20 -12 -14
-15 -14 -34 2 -56 47 -102 55 -151 25z"
    ></path>
    <path
      class="node"
      id="node2"
      d="M978 2123 c-7 -14 -2 -143 5 -143 14 -1 32 15 50 43 22 35 32 34 47
-3 16 -39 63 -64 120 -63 63 0 97 17 121 58 25 41 36 44 49 11 22 -59 117 -90
185 -62 38 16 74 52 75 74 0 23 28 12 40 -18 18 -43 85 -73 145 -65 51 8 92
36 105 71 9 23 40 34 40 15 0 -13 50 -71 61 -71 5 0 9 36 9 81 l0 81 -27 -6
c-255 -52 -791 -52 -999 0 -12 3 -24 2 -26 -3z"
    ></path>
    <path
      class="node"
      id="node3"
      d="M1025 1970 c-10 -11 -24 -20 -32 -20 -9 0 -13 -15 -14 -45 -1 -25 -3
-49 -4 -55 -1 -5 -3 -14 -4 -18 0 -5 -31 -14 -68 -21 -79 -16 -103 -26 -103
-46 0 -53 268 -85 705 -85 388 0 651 27 690 70 16 17 15 19 -7 34 -12 8 -53
21 -90 28 l-68 13 0 56 c0 55 -1 58 -37 80 -21 13 -41 25 -44 27 -4 2 -23 -8
-44 -22 -67 -46 -179 -42 -233 7 l-22 21 -29 -21 c-66 -50 -169 -53 -235 -8
l-36 24 -35 -23 c-19 -14 -53 -27 -75 -31 -51 -9 -133 10 -156 36 -22 24 -36
24 -59 -1z"
    ></path>
    <path
      class="node"
      id="node4"
      d="M800 1566 c0 -105 0 -107 26 -116 62 -24 143 0 172 50 20 35 43 39
57 8 38 -84 198 -88 244 -6 21 36 32 35 55 -3 47 -80 203 -74 241 9 14 31 37
27 57 -8 19 -34 71 -60 118 -60 47 0 99 26 118 60 21 37 42 38 63 2 31 -54
115 -76 184 -48 48 20 67 56 73 135 5 74 -3 90 -38 71 -57 -31 -548 -65 -795
-55 -264 10 -492 35 -561 62 -12 4 -14 -13 -14 -101z"
    ></path>
    <path
      class="node"
      id="node5"
      d="M1005 1460 c-25 -28 -90 -43 -152 -37 l-52 5 -3 -66 -3 -67 -75 -16
c-195 -42 -169 -89 70 -129 165 -27 327 -36 660 -39 545 -4 960 43 960 108 0
23 -54 48 -135 62 l-65 11 -2 67 c0 36 -1 74 0 84 2 21 3 21 -49 -3 -72 -32
-168 -21 -220 26 -15 13 -20 12 -53 -10 -69 -46 -172 -46 -234 1 l-32 24 -30
-25 c-55 -46 -162 -47 -229 -3 l-36 23 -33 -22 c-64 -44 -178 -43 -231 2 -35
29 -33 29 -56 4z"
    ></path>
    <path
      class="node"
      id="node6"
      d="M592 998 l3 -122 35 -20 c26 -15 52 -21 100 -21 79 0 126 24 155 78
25 47 50 48 69 3 26 -61 101 -93 193 -81 60 7 119 49 129 91 9 36 40 30 60
-11 26 -55 76 -80 160 -80 59 1 78 5 108 25 20 14 42 40 48 58 16 44 43 42 67
-5 23 -46 65 -72 128 -80 69 -8 125 11 162 52 17 20 31 42 31 50 0 9 10 15 25
15 18 0 29 -9 44 -37 10 -21 32 -46 48 -55 65 -38 184 -32 231 12 20 19 22 30
22 136 0 105 -2 115 -17 110 -85 -25 -168 -38 -348 -57 -189 -19 -251 -20
-615 -16 -421 5 -655 23 -775 61 -27 9 -54 16 -58 16 -4 0 -6 -55 -5 -122z"
    ></path>
    <path
      class="node"
      id="node7"
      d="M2053 868 c-32 -37 -113 -68 -175 -68 -61 0 -151 32 -177 63 -12 15
-16 14 -46 -8 -96 -74 -247 -70 -333 8 l-22 21 -28 -26 c-83 -77 -245 -75
-330 4 l-22 22 -28 -25 c-63 -57 -171 -76 -248 -44 -20 8 -40 12 -45 9 -5 -3
-9 -65 -9 -138 l0 -133 -43 -6 c-52 -7 -137 -42 -137 -56 0 -28 101 -61 245
-80 249 -32 345 -36 850 -36 430 0 550 3 695 18 246 25 390 60 390 94 0 17
-80 52 -137 60 l-43 6 0 142 0 143 -50 -19 c-94 -35 -203 -17 -264 44 l-25 25
-18 -20z"
    ></path>
  </g>
  <g
    transform="translate(0.000000,300.000000) scale(0.100000,-0.100000)"
    fill="#967E67"
    stroke="none"
  ></g>
</svg>
